<?xml version="1.0" encoding="UTF-8"?><svg xmlns="http://www.w3.org/2000/svg" viewBox="0 0 314.91 25.47"><defs><style>.d{fill:#006fbc;}.e{fill:#e60012;}</style></defs><g id="a"/><g id="b"><g id="c"><g><g><rect class="d" x="154.54" y="2.55" width="5.04" height="20.38"/><polygon class="d" points="177.39 15.01 177.33 15.01 169.09 2.55 164.06 2.55 164.06 22.93 169.09 22.93 169.09 10.44 169.14 10.44 177.39 22.93 182.42 22.93 182.42 2.55 177.39 2.55 177.39 15.01"/><polygon class="d" points="242.48 7.03 246.74 7.03 246.74 22.93 251.78 22.93 251.78 7.03 256.04 7.03 256.04 2.55 242.48 2.55 242.48 7.03"/><rect class="d" x="276.97" y="2.55" width="5.04" height="20.38"/><polygon class="d" points="286.68 22.93 298.01 22.93 298.01 18.44 291.71 18.44 291.71 14.92 297.7 14.92 297.7 10.44 291.71 10.44 291.71 7.03 298.01 7.03 298.01 2.55 286.68 2.55 286.68 22.93"/><path class="d" d="M309.53,10.68c-2.11-.75-3.22-1.4-3.22-2.53s1.07-1.76,2.16-1.71c1.81,.09,3.34,1.35,3.34,1.35l2.19-3.75s-2.29-2.03-5.94-2.03-6.76,2.3-6.97,6.14c-.2,3.8,2.85,5.41,4.65,6.12,1.75,.68,3.92,1.14,3.92,2.69s-1.52,1.99-2.61,1.97c-1.15-.01-2.96-.54-4.48-1.78l-2.01,3.99c.86,.67,3.67,2.27,6.81,2.33,3.59,.06,8.04-2.14,7.5-7.4-.31-3.07-3.17-4.61-5.34-5.39Z"/><path class="d" d="M235.72,10.68c-2.11-.75-3.22-1.4-3.22-2.53s1.07-1.76,2.16-1.71c1.81,.09,3.34,1.35,3.34,1.35l2.19-3.75s-2.29-2.03-5.94-2.03-6.76,2.3-6.97,6.14c-.2,3.8,2.85,5.41,4.65,6.12,1.75,.68,3.92,1.14,3.92,2.69s-1.52,1.99-2.62,1.97c-1.15-.01-2.96-.54-4.48-1.78l-2.02,3.99c.86,.67,3.68,2.27,6.81,2.33,3.59,.06,8.04-2.14,7.5-7.4-.31-3.07-3.17-4.61-5.34-5.39Z"/><path class="d" d="M218.93,14.39c0,2.66-.9,4.43-3.41,4.43s-3.42-1.77-3.42-4.43V2.55h-5.04V14.83c0,7.37,4.99,8.63,8.46,8.63s8.45-1.27,8.45-8.63V2.55h-5.04V14.39Z"/><path class="d" d="M194.19,2.55h-7.29V22.93h7.29c5.4,0,9.7-3.05,9.7-10.19s-4.29-10.19-9.7-10.19Zm-1.36,15.89h-.89V7.03h.89c4.26,0,5.81,1.99,5.81,5.71s-1.55,5.7-5.81,5.7Z"/><path class="d" d="M273.45,8.82c0-4.35-3.13-6.27-6.96-6.27h-7.53V22.93h5.04v-7.84h.05l4.82,7.84h5.56l-5.45-8.35c2.75-.51,4.47-2.95,4.47-5.76Zm-8.84,2.87h-.61V6.6h.67c1.65,0,3.31,.33,3.31,2.54s-1.72,2.54-3.37,2.54Z"/></g><g><g><path class="d" d="M67.04,1.87c-6,0-10.86,4.86-10.86,10.86s4.86,10.86,10.86,10.86,10.86-4.86,10.86-10.86-4.86-10.86-10.86-10.86Zm0,16.59c-3.16,0-5.73-2.57-5.73-5.73s2.57-5.73,5.73-5.73,5.73,2.57,5.73,5.73-2.57,5.73-5.73,5.73Z"/><path class="d" d="M108.16,1.87c-6,0-10.86,4.86-10.86,10.86s4.86,10.86,10.86,10.86,10.86-4.86,10.86-10.86-4.86-10.86-10.86-10.86Zm0,16.59c-3.17,0-5.73-2.57-5.73-5.73s2.56-5.73,5.73-5.73,5.72,2.57,5.72,5.73-2.56,5.73-5.72,5.73Z"/><polygon class="d" points="87.59 2.54 82.3 2.54 82.3 22.92 94.6 22.92 94.6 18.2 87.59 18.2 87.59 2.54"/><polygon class="d" points="48.51 2.54 42.1 11 42.1 2.55 36.8 2.55 36.8 22.92 42.1 22.92 42.1 14.46 48.51 22.91 55.13 22.91 47.02 12.73 55.13 2.54 48.51 2.54"/><polygon class="d" points="137.31 2.54 137.31 14.2 137.26 14.2 128.78 2.54 123.43 2.54 123.43 22.92 128.72 22.92 128.72 10.45 128.78 10.45 137.86 22.92 142.61 22.92 142.61 2.54 137.31 2.54"/></g><path class="e" d="M5.29,2.04c-.58-1.02,.24-2.04,1.19-2.04H22.6c1.33,0,1.69,1.26,1.15,2.12l-2.9,5.02c-.47,.94-1.63,.9-2.15,.04l-2.8-4.89c-.78-1.31-1.87-1.34-2.66,0l-2.76,4.76c-.39,.72,.21,1.79,1.19,1.79H27.79c1.12,0,1.66,1.24,1.21,2.03,0,0-7.4,12.81-7.99,13.84-.59,1.03-2.01,.98-2.58,0l-2.83-4.82c-.57-1.02,.21-2.22,1.16-2.22h6.01c.9,0,1.43-.94,.92-1.84l-2.64-4.64c-.69-1.18-1.8-1.24-2.52-.05,0,0-7.32,12.6-7.88,13.57-.57,.97-1.71,1.05-2.33,0C7.68,23.65,.21,10.92,.21,10.92c-.63-1.13,.26-2.08,1.25-2.08H7.05c1.38,0,1.76,1.2,1.21,2.09l-2.89,5.01c-.43,.76,.25,1.75,1.19,1.74h5.83c.89,.01,1.47-.81,.96-1.72L5.29,2.04h0Z"/></g></g></g></g></svg>